<svg width="920" height="857" viewBox="0 0 920 857" fill="none" xmlns="http://www.w3.org/2000/svg" role="img" aria-label="Plano V2 convertido desde fragmentos SVG">
  <rect width="920" height="857" fill="white"/>
  <text x="20" y="16" font-family="Arial, sans-serif" font-size="12" fill="#555">Plano V2 convertido desde plano v2.txt. El archivo original contiene fragmentos SVG separados.</text>
  <g transform="translate(20 20)"><svg width="36" height="41" viewBox="0 0 36 41" fill="none" xmlns="http://www.w3.org/2000/svg"><path id="1-Aula 1" d="M34.6814 10.6806L19.1814 39.6806L0.681412 29.6806L16.6814 0.680618L34.6814 10.6806Z" stroke="black"/></svg><text x="0" y="55" font-family="Arial, sans-serif" font-size="10" fill="#333">1-Aula 1</text></g>
  <g transform="translate(96 20)"><svg width="59" height="49" viewBox="0 0 59 49" fill="none" xmlns="http://www.w3.org/2000/svg"><path id="10-Aula 10A" d="M0.679192 24.6791L44.6792 48.1791L57.6792 24.6791L13.6792 0.679077L0.679192 24.6791Z" stroke="black"/></svg><text x="0" y="63" font-family="Arial, sans-serif" font-size="10" fill="#333">10-Aula 10A</text></g>
  <g transform="translate(195 20)"><svg width="61" height="55" viewBox="0 0 61 55" fill="none" xmlns="http://www.w3.org/2000/svg"><path id=" 11-Aula 10B" d="M16.6781 0.675461L0.678146 29.6755L43.6781 53.6755L60.1781 24.1755L16.6781 0.675461Z" stroke="black"/></svg><text x="0" y="69" font-family="Arial, sans-serif" font-size="10" fill="#333">11-Aula 10B</text></g>
  <g transform="translate(296 20)"><svg width="78" height="87" viewBox="0 0 78 87" fill="none" xmlns="http://www.w3.org/2000/svg"><path id="12-Aula 11" d="M44.6802 85.6867L0.680237 62.1867L34.1802 0.686737L77.1802 25.1867L44.6802 85.6867Z" stroke="black"/></svg><text x="0" y="101" font-family="Arial, sans-serif" font-size="10" fill="#333">12-Aula 11</text></g>
  <g transform="translate(414 20)"><svg width="46" height="46" viewBox="0 0 46 46" fill="none" xmlns="http://www.w3.org/2000/svg"><path id="14-Aula 14" d="M30.6583 44.663L0.65834 31.163L14.1583 0.663025L45.1583 14.663L30.6583 44.663Z" stroke="black"/></svg><text x="0" y="60" font-family="Arial, sans-serif" font-size="10" fill="#333">14-Aula 14</text></g>
  <g transform="translate(500 20)"><svg width="51" height="59" viewBox="0 0 51 59" fill="none" xmlns="http://www.w3.org/2000/svg"><path id="15-Aula 15" d="M19.1613 0.695404L5.66132 32.6954L0.661316 43.6954L31.1613 57.6954L49.6613 16.6954L19.1613 0.695404Z" stroke="black"/></svg><text x="0" y="73" font-family="Arial, sans-serif" font-size="10" fill="#333">15-Aula 15</text></g>
  <g transform="translate(591 20)"><svg width="80" height="58" viewBox="0 0 80 58" fill="none" xmlns="http://www.w3.org/2000/svg"><path id="15-Bibloteca" d="M31.3417 0.708862L0.841675 56.7089H65.3417L79.3417 31.2089L31.3417 0.708862Z" stroke="black"/></svg><text x="0" y="72" font-family="Arial, sans-serif" font-size="10" fill="#333">15-Bibloteca</text></g>
  <g transform="translate(711 20)"><svg width="81" height="89" viewBox="0 0 81 89" fill="none" xmlns="http://www.w3.org/2000/svg"><path id="16-Aula 5" d="M0.67591 62.6786L34.1759 0.67865L80.1759 25.6786L46.1759 87.6786L0.67591 62.6786Z" stroke="black"/></svg><text x="0" y="103" font-family="Arial, sans-serif" font-size="10" fill="#333">16-Aula 5</text></g>
  <g transform="translate(20 154)"><svg width="62" height="65" viewBox="0 0 62 65" fill="none" xmlns="http://www.w3.org/2000/svg"><path id="17-Buffet" d="M0.683495 33.5L19.1835 0.5H39.6835V10.5H60.6835V21.5L55.6835 63.5L0.683495 33.5Z" stroke="black"/></svg><text x="0" y="79" font-family="Arial, sans-serif" font-size="10" fill="#333">17-Buffet</text></g>
  <g transform="translate(122 154)"><svg width="18" height="21" viewBox="0 0 18 21" fill="none" xmlns="http://www.w3.org/2000/svg"><path id="18-Intendencia" d="M6.5 20H0.5V0.5H17L6.5 20Z" stroke="black"/></svg><text x="0" y="35" font-family="Arial, sans-serif" font-size="10" fill="#333">18-Intendencia</text></g>
  <g transform="translate(180 154)"><svg width="36" height="21" viewBox="0 0 36 21" fill="none" xmlns="http://www.w3.org/2000/svg"><path id="19-Mesa de Entradas" d="M35 20H0.5V0.5H35V1V20Z" stroke="black"/></svg><text x="0" y="35" font-family="Arial, sans-serif" font-size="10" fill="#333">19-Mesa de Entradas</text></g>
  <g transform="translate(256 154)"><svg width="36" height="41" viewBox="0 0 36 41" fill="none" xmlns="http://www.w3.org/2000/svg"><path id="2-Aula 2" d="M18.9148 39.6817L0.682953 29.6817L16.9438 0.681656L34.683 10.6817L34.1902 11.1817L18.9148 39.6817Z" stroke="black"/></svg><text x="0" y="55" font-family="Arial, sans-serif" font-size="10" fill="#333">2-Aula 2</text></g>
  <g transform="translate(332 154)"><svg width="36" height="21" viewBox="0 0 36 21" fill="none" xmlns="http://www.w3.org/2000/svg"><path id="20-Alumnos" d="M35.5 20H0.5V0.5H35.5V20Z" stroke="black"/></svg><text x="0" y="35" font-family="Arial, sans-serif" font-size="10" fill="#333">20-Alumnos</text></g>
  <g transform="translate(408 154)"><svg width="37" height="27" viewBox="0 0 37 27" fill="none" xmlns="http://www.w3.org/2000/svg"><path id="21-Direc.Economico Financiera" d="M0.5 1V1.5M0.5 1.5V26H36L35.5 0.5H0.5V1.5Z" stroke="black"/></svg><text x="0" y="41" font-family="Arial, sans-serif" font-size="10" fill="#333">21-Direc.Economico Financiera</text></g>
  <g transform="translate(485 154)"><svg width="18" height="27" viewBox="0 0 18 27" fill="none" xmlns="http://www.w3.org/2000/svg"><path id="22-Contable" d="M17 26.5H0.5V0.5H17V26.5Z" stroke="black"/></svg><text x="0" y="41" font-family="Arial, sans-serif" font-size="10" fill="#333">22-Contable</text></g>
  <g transform="translate(543 154)"><svg width="10" height="27" viewBox="0 0 10 27" fill="none" xmlns="http://www.w3.org/2000/svg"><path id="23-Compras e Inventario" d="M9 26.5H0.5V0.5H9V26.5Z" stroke="black"/></svg><text x="0" y="41" font-family="Arial, sans-serif" font-size="10" fill="#333">23-Compras e Inventario</text></g>
  <g transform="translate(593 154)"><svg width="9" height="27" viewBox="0 0 9 27" fill="none" xmlns="http://www.w3.org/2000/svg"><path id="24-Secretaria Administrativa" d="M8.5 26.5H0.5V0.5H8.5V26.5Z" stroke="black"/></svg><text x="0" y="41" font-family="Arial, sans-serif" font-size="10" fill="#333">24-Secretaria Administrativa</text></g>
  <g transform="translate(642 154)"><svg width="18" height="27" viewBox="0 0 18 27" fill="none" xmlns="http://www.w3.org/2000/svg"><path id="25-Personal" d="M17 26.5H0.5V0.5H17V26.5Z" stroke="black"/></svg><text x="0" y="41" font-family="Arial, sans-serif" font-size="10" fill="#333">25-Personal</text></g>
  <g transform="translate(700 154)"><svg width="17" height="27" viewBox="0 0 17 27" fill="none" xmlns="http://www.w3.org/2000/svg"><path id="26-Despacho" d="M16.5 26.5H0.5V0.5H16.5V26.5Z" stroke="black"/></svg><text x="0" y="41" font-family="Arial, sans-serif" font-size="10" fill="#333">26-Despacho</text></g>
  <g transform="translate(757 154)"><svg width="9" height="27" viewBox="0 0 9 27" fill="none" xmlns="http://www.w3.org/2000/svg"><path id="27-Sala de Profesores" d="M8.5 0.5H0.5V26.5H8.5V26V0.5Z" stroke="black"/></svg><text x="0" y="41" font-family="Arial, sans-serif" font-size="10" fill="#333">27-Sala de Profesores</text></g>
  <g transform="translate(806 154)"><svg width="9" height="27" viewBox="0 0 9 27" fill="none" xmlns="http://www.w3.org/2000/svg"><path id="28-Area de Rendiciones" d="M0.5 0.5V26.5H8.5V0.5H0.5Z" stroke="black"/></svg><text x="0" y="41" font-family="Arial, sans-serif" font-size="10" fill="#333">28-Area de Rendiciones</text></g>
  <g transform="translate(855 154)"><svg width="19" height="35" viewBox="0 0 19 35" fill="none" xmlns="http://www.w3.org/2000/svg"><path id="29-Mantenimiento" d="M0.5 34.5V0.5H18.5V34.5H0.5Z" stroke="black"/></svg><text x="0" y="49" font-family="Arial, sans-serif" font-size="10" fill="#333">29-Mantenimiento</text></g>
  <g transform="translate(20 264)"><svg width="36" height="41" viewBox="0 0 36 41" fill="none" xmlns="http://www.w3.org/2000/svg"><path id="3-Aula 3" d="M0.681419 29.6756L19.1814 39.6756L35.1814 10.6756L16.6814 0.675568L0.681419 29.6756Z" stroke="black"/></svg><text x="0" y="55" font-family="Arial, sans-serif" font-size="10" fill="#333">3-Aula 3</text></g>
  <g transform="translate(96 264)"><svg width="67" height="57" viewBox="0 0 67 57" fill="none" xmlns="http://www.w3.org/2000/svg"><path id="4-Aula 4" d="M65.6768 27.1752L49.6768 56.1752L0.676815 29.1752L16.1768 0.675247L65.6768 27.1752Z" stroke="black"/></svg><text x="0" y="71" font-family="Arial, sans-serif" font-size="10" fill="#333">4-Aula 4</text></g>
  <g transform="translate(203 264)"><svg width="24" height="19" viewBox="0 0 24 19" fill="none" xmlns="http://www.w3.org/2000/svg"><path id="5-Fotocopiadora" d="M17.5716 17.6525L0.687855 8.90964L5.29251 0.652496L22.6879 8.90964L17.5716 17.6525Z" stroke="black"/></svg><text x="0" y="33" font-family="Arial, sans-serif" font-size="10" fill="#333">5-Fotocopiadora</text></g>
  <g transform="translate(267 264)"><svg width="79" height="65" viewBox="0 0 79 65" fill="none" xmlns="http://www.w3.org/2000/svg"><path id="6-Aula 6" d="M17.1807 0.677551L0.680748 30.6776L61.6807 63.6776L77.6807 33.6776L17.1807 0.677551Z" stroke="black"/></svg><text x="0" y="79" font-family="Arial, sans-serif" font-size="10" fill="#333">6-Aula 6</text></g>
  <g transform="translate(386 264)"><svg width="32" height="40" viewBox="0 0 32 40" fill="none" xmlns="http://www.w3.org/2000/svg"><path id="7-Aula 7" d="M15.6735 38.6811L15.1735 38.3977M15.1735 38.3977L0.673508 30.1811L5.55486 21.1811L16.6735 0.681061L31.1735 8.68106L15.1735 38.3977Z" stroke="black"/></svg><text x="0" y="54" font-family="Arial, sans-serif" font-size="10" fill="#333">7-Aula 7</text></g>
  <g transform="translate(458 264)"><svg width="47" height="47" viewBox="0 0 47 47" fill="none" xmlns="http://www.w3.org/2000/svg"><path id="8-Aula 9" d="M46.1795 16.6828L29.6795 46.1828L15.1795 38.1828L0.679459 30.6828L16.6795 0.68277L31.1795 8.68277L46.1795 16.6828Z" stroke="black"/></svg><text x="0" y="61" font-family="Arial, sans-serif" font-size="10" fill="#333">8-Aula 9</text></g>
  <g transform="translate(545 264)"><svg width="14" height="14" viewBox="0 0 14 14" fill="none" xmlns="http://www.w3.org/2000/svg"><path id="Arbol" d="M0.5 13.5V0.5H13.5V13.5H0.5Z" stroke="black"/></svg><text x="0" y="28" font-family="Arial, sans-serif" font-size="10" fill="#333">Arbol</text></g>
  <g transform="translate(599 264)"><svg width="12" height="12" viewBox="0 0 12 12" fill="none" xmlns="http://www.w3.org/2000/svg"><path id="Ba&#195;&#177;o Accesible" d="M6.70654 11.1543L0.706543 8.15428L5.20654 0.654282L11.2065 3.65428L6.70654 11.1543Z" stroke="black"/></svg><text x="0" y="26" font-family="Arial, sans-serif" font-size="10" fill="#333">Ba&amp;#195;&amp;#177;o Accesible</text></g>
  <g transform="translate(651 264)"><svg width="24" height="20" viewBox="0 0 24 20" fill="none" xmlns="http://www.w3.org/2000/svg"><path id="Ba&#195;&#177;o Hombres" d="M0.737762 8.67862L5.23776 0.678619L23.2378 10.6786L18.7378 18.6786L0.237762 8.67862" stroke="black"/></svg><text x="0" y="34" font-family="Arial, sans-serif" font-size="10" fill="#333">Ba&amp;#195;&amp;#177;o Hombres</text></g>
  <g transform="translate(715 264)"><svg width="24" height="20" viewBox="0 0 24 20" fill="none" xmlns="http://www.w3.org/2000/svg"><path id="Ba&#195;&#177;o Mujeres" d="M18.703 18.6726L0.703003 8.67259L5.703 0.672592L23.203 10.6726L18.703 18.6726Z" stroke="black"/></svg><text x="0" y="34" font-family="Arial, sans-serif" font-size="10" fill="#333">Ba&amp;#195;&amp;#177;o Mujeres</text></g>
  <g transform="translate(779 264)"><svg width="29" height="32" viewBox="0 0 29 32" fill="none" xmlns="http://www.w3.org/2000/svg"><path id="Ba&#195;&#177;os " d="M12.3284 0.682482L27.4648 9.08542L15.3081 30.6386L0.671666 22.2277L12.3284 0.682482Z" stroke="black"/></svg><text x="0" y="46" font-family="Arial, sans-serif" font-size="10" fill="#333">Ba&amp;#195;&amp;#177;os</text></g>
  <g transform="translate(848 264)"><svg width="21" height="18" viewBox="0 0 21 18" fill="none" xmlns="http://www.w3.org/2000/svg"><path id="Cefi" d="M0.698654 9.1676L15.1987 16.6676L19.6987 8.1676L5.69865 0.667603L0.698654 9.1676Z" stroke="black"/></svg><text x="0" y="32" font-family="Arial, sans-serif" font-size="10" fill="#333">Cefi</text></g>
  <g transform="translate(20 374)"><svg width="407" height="50" viewBox="0 0 407 50" fill="none" xmlns="http://www.w3.org/2000/svg"><path id="Entrada con Escaleras" d="M0.5 49.5V34H323.5V0.5H355V17.5V34H406.5V49.5H0.5Z" stroke="black"/></svg><text x="0" y="64" font-family="Arial, sans-serif" font-size="10" fill="#333">Entrada con Escaleras</text></g>
  <g transform="translate(467 374)"><svg width="126" height="34" viewBox="0 0 126 34" fill="none" xmlns="http://www.w3.org/2000/svg"><path id="Entrada con Rampa" d="M0.851677 33.5L12.8517 12V5.5H90.3517L92.8517 0.5H124.852V18.5H89.3517V11.5L21.3517 12V33.5H0.851677Z" stroke="black"/></svg><text x="0" y="48" font-family="Arial, sans-serif" font-size="10" fill="#333">Entrada con Rampa</text></g>
  <g transform="translate(633 374)"><svg width="35" height="33" viewBox="0 0 35 33" fill="none" xmlns="http://www.w3.org/2000/svg"><path id="Escalera" d="M17.6906 28.675L21.1906 21.675L17.1906 28.675L0.690643 20.175L11.6906 0.674988L33.6906 12.675L23.6906 32.175L17.6906 28.675Z" stroke="black"/></svg><text x="0" y="47" font-family="Arial, sans-serif" font-size="10" fill="#333">Escalera</text></g>
  <g transform="translate(708 374)"><svg width="70" height="12" viewBox="0 0 70 12" fill="none" xmlns="http://www.w3.org/2000/svg"><path id="Escaleras con Rampa" d="M0.5 0.5V11H66L69.5 7V0.5H0.5Z" stroke="black"/></svg><text x="0" y="26" font-family="Arial, sans-serif" font-size="10" fill="#333">Escaleras con Rampa</text></g>
  <g transform="translate(818 374)"><svg width="14" height="12" viewBox="0 0 14 12" fill="none" xmlns="http://www.w3.org/2000/svg"><path id="Escaleras" d="M0.5 11.5V0.5H13V11.5H0.5Z" stroke="black"/></svg><text x="0" y="26" font-family="Arial, sans-serif" font-size="10" fill="#333">Escaleras</text></g>
  <g transform="translate(20 469)"><svg width="12" height="7" viewBox="0 0 12 7" fill="none" xmlns="http://www.w3.org/2000/svg"><path id="Escaleras" d="M0.5 0.5V6.5H11V0.5H0.5Z" stroke="black"/></svg><text x="0" y="21" font-family="Arial, sans-serif" font-size="10" fill="#333">Escaleras</text></g>
  <g transform="translate(72 469)"><svg width="93" height="94" viewBox="0 0 93 94" fill="none" xmlns="http://www.w3.org/2000/svg"><path id="Hall central" d="M0.846909 93.1732H60.8469H69.8469L89.3469 49.1732L84.3469 47.1732L91.3469 33.6732L86.3469 30.6732L91.3469 23.1732L86.3469 20.1732L78.8469 32.6732L52.8469 18.1732L59.8469 5.67323L50.8469 0.673233L42.8469 14.1732L32.8469 30.1732L16.8469 64.1732L0.846909 93.1732Z" stroke="black"/></svg><text x="0" y="108" font-family="Arial, sans-serif" font-size="10" fill="#333">Hall central</text></g>
  <g transform="translate(205 469)"><svg width="285" height="35" viewBox="0 0 285 35" fill="none" xmlns="http://www.w3.org/2000/svg"><path id="Pasillo administrativo" d="M280 8.00088L284 1.00088L0.5 0.500881V26.0009H21V8.00088H113.5V34.0009H132V23.5009H154V8.00088H280Z" stroke="black"/></svg><text x="0" y="49" font-family="Arial, sans-serif" font-size="10" fill="#333">Pasillo administrativo</text></g>
  <g transform="translate(530 469)"><svg width="115" height="144" viewBox="0 0 115 144" fill="none" xmlns="http://www.w3.org/2000/svg"><path id="Pasillo aula 11 a 12" d="M34 123.184L99.5 1.68359L100 0.683594L114 8.18359V33.6836H94.5L43.5 129.184L40.5 143.184H0.5V127.184L29 129.184L34 123.184Z" stroke="black"/></svg><text x="0" y="158" font-family="Arial, sans-serif" font-size="10" fill="#333">Pasillo aula 11 a 12</text></g>
  <g transform="translate(20 658)"><svg width="244" height="139" viewBox="0 0 244 139" fill="none" xmlns="http://www.w3.org/2000/svg"><path id="Pasillo del Aula 1 a 9" d="M243.183 129.676L238.183 137.676L0.683022 9.67575L5.68302 0.675751L243.183 129.676Z" stroke="black"/></svg><text x="0" y="153" font-family="Arial, sans-serif" font-size="10" fill="#333">Pasillo del Aula 1 a 9</text></g>
  <g transform="translate(304 658)"><svg width="296" height="115" viewBox="0 0 296 115" fill="none" xmlns="http://www.w3.org/2000/svg"><path id="Patio" d="M201 103.179L206 93.6789L155 65.6789L188.5 4.67894L181 0.67894L174.5 13.1789H155V21.6789H169.5L148 61.6789L147 64.1789L80.5 28.1789L66 56.6789L90.5 70.1789V104.679H0.5V113.679H135V102.179L201 103.179ZM201 103.179H206M206 103.179H225V105.179H294.5L289.5 114.179H204.5L206.5 111.179V105.179L206 103.179Z" stroke="black"/></svg><text x="0" y="129" font-family="Arial, sans-serif" font-size="10" fill="#333">Patio</text></g>
  <g transform="translate(640 658)"><svg width="56" height="66" viewBox="0 0 56 66" fill="none" xmlns="http://www.w3.org/2000/svg"><path id="pasto" d="M35.8402 0.677231L0.840187 65.1772H23.3402L54.3402 10.6772L35.8402 0.677231Z" stroke="black"/></svg><text x="0" y="80" font-family="Arial, sans-serif" font-size="10" fill="#333">pasto</text></g>
</svg>
