<svg width="432" height="297" viewBox="0 0 432 297" fill="none" xmlns="http://www.w3.org/2000/svg">
<g id="Frame 1">
<path id="Entrada con Escaleras" d="M1 296.183V280.683H324V247.183H355.5V264.183V280.683H407V296.183H1Z" stroke="black"/>
<path id="15-Bibloteca" d="M272 156.183L241.5 212.183H306L320 186.683L272 156.183Z" stroke="black"/>
<path id="29-Mantenimiento" d="M0.5 257.683V223.683H18.5V257.683H0.5Z" stroke="black"/>
<path id="28-Area de Rendiciones" d="M43.5 232.183V258.183H51.5V232.183H43.5Z" stroke="black"/>
<path id="Escaleras" d="M26.5 252.183V258.183H37V252.183H26.5Z" stroke="black"/>
<path id="27-Sala de Profesores" d="M60.5 232.183H52.5V258.183H60.5V257.683V232.183Z" stroke="black"/>
<path id="26-Despacho" d="M78 258.183H62V232.183H78V258.183Z" stroke="black"/>
<path id="25-Personal" d="M95.5 258.183H79V232.183H95.5V258.183Z" stroke="black"/>
<path id="24-Secretaria Administrativa" d="M104.5 258.183H96.5V232.183H104.5V258.183Z" stroke="black"/>
<path id="23-Compras e Inventario" d="M114 258.183H105.5V232.183H114V258.183Z" stroke="black"/>
<path id="22-Contable" d="M131.5 258.183H115V232.183H131.5V258.183Z" stroke="black"/>
<path id="Escaleras_2" d="M156.5 257.683V246.683H169V257.683H156.5Z" stroke="black"/>
<path id="21-Direc.Economico Financiera" d="M175 232.683V233.183M175 233.183V257.683H210.5L210 232.183H175V233.183Z" stroke="black"/>
<path id="20-Alumnos" d="M246 251.683H211V232.183H246V251.683Z" stroke="black"/>
<path id="19-Mesa de Entradas" d="M281.5 251.683H247V232.183H281.5V232.683V251.683Z" stroke="black"/>
<path id="18-Intendencia" d="M288.5 251.683H282.5V232.183H299L288.5 251.683Z" stroke="black"/>
<path id="Entrada con Rampa" d="M199.5 280.183L211.5 258.683V252.183H289L291.5 247.183H323.5V265.183H288V258.183L220 258.683V280.183H199.5Z" stroke="black"/>
<path id="pasto" d="M251.5 145.683L216.5 210.183H239L270 155.683L251.5 145.683Z" stroke="black"/>
<path id="Escaleras con Rampa" d="M150.5 211.683V222.183H216L219.5 218.183V211.683H150.5Z" stroke="black"/>
<path id="Hall central" d="M295.5 241.183H355.5H364.5L384 197.183L379 195.183L386 181.683L381 178.683L386 171.183L381 168.183L373.5 180.683L347.5 166.183L354.5 153.683L345.5 148.683L337.5 162.183L327.5 178.183L311.5 212.183L295.5 241.183Z" stroke="black"/>
<path id="Ba&#195;&#177;o Accesible" d="M357 164.683L351 161.683L355.5 154.183L361.5 157.183L357 164.683Z" stroke="black"/>
<path id="Ba&#195;&#177;o Hombres" d="M350 149.683L354.5 141.683L372.5 151.683L368 159.683L349.5 149.683" stroke="black"/>
<path id="Ba&#195;&#177;o Mujeres" d="M386.5 170.183L368.5 160.183L373.5 152.183L391 162.183L386.5 170.183Z" stroke="black"/>
<path id="16-Aula 5" d="M171 173.683L204.5 111.683L250.5 136.683L216.5 198.683L171 173.683Z" stroke="black"/>
<path id="Pasillo del Aula 1 a 9" d="M331.5 169.183L326.5 177.183L89 49.1828L94 40.1828L331.5 169.183Z" stroke="black"/>
<path id="1-Aula 1" d="M347.5 139.183L332 168.183L313.5 158.183L329.5 129.183L347.5 139.183Z" stroke="black"/>
<path id="2-Aula 2" d="M312.732 157.683L294.5 147.683L310.761 118.683L328.5 128.683L328.007 129.183L312.732 157.683Z" stroke="black"/>
<path id="3-Aula 3" d="M275.5 137.183L294 147.183L310 118.183L291.5 108.183L275.5 137.183Z" stroke="black"/>
<path id="4-Aula 4" d="M290.5 107.683L274.5 136.683L225.5 109.683L241 81.1828L290.5 107.683Z" stroke="black"/>
<path id="5-Fotocopiadora" d="M218.634 106.683L201.75 97.9399L206.355 89.6828L223.75 97.9399L218.634 106.683Z" stroke="black"/>
<path id="Escalera" d="M224 97.1828L227.5 90.1828L223.5 97.1828L207 88.6828L218 69.1828L240 81.1828L230 100.683L224 97.1828Z" stroke="black"/>
<path id="Ba&#195;&#177;os " d="M202.76 58.7087L217.897 67.1116L205.74 88.6649L191.103 80.2539L202.76 58.7087Z" stroke="black"/>
<path id="Pasillo administrativo" d="M299.5 231.183L303.5 224.183L20 223.683V249.183H40.5V231.183H133V257.183H151.5V246.683H173.5V231.183H299.5Z" stroke="black"/>
<path id="Patio" d="M215 211.183L220 201.683L169 173.683L202.5 112.683L195 108.683L188.5 121.183H169V129.683H183.5L162 169.683L161 172.183L94.5 136.183L80 164.683L104.5 178.183V212.683H14.5V221.683H149V210.183L215 211.183ZM215 211.183H220M220 211.183H239V213.183H308.5L303.5 222.183H218.5L220.5 219.183V213.183L220 211.183Z" stroke="black"/>
<path id="17-Buffet" d="M95.5 134.683L114 101.683H134.5V111.683H155.5V122.683L150.5 164.683L95.5 134.683Z" stroke="black"/>
<path id="Pasillo aula 11 a 12" d="M53.5 189.683L119 68.1828L119.5 67.1828L133.5 74.6828V100.183H114L63 195.683L60 209.683H20V193.683L48.5 195.683L53.5 189.683Z" stroke="black"/>
<path id="10-Aula 10A" d="M56 70.6828L100 94.1828L113 70.6828L69 46.6828L56 70.6828Z" stroke="black"/>
<path id=" 11-Aula 10B" d="M55.5 72.1828L39.5 101.183L82.5 125.183L99 95.6828L55.5 72.1828Z" stroke="black"/>
<path id="12-Aula 11" d="M49.5 187.183L5.5 163.683L39 102.183L82 126.683L49.5 187.183Z" stroke="black"/>
<path id="6-Aula 6" d="M141 25.6828L124.5 55.6828L185.5 88.6828L201.5 58.6828L141 25.6828Z" stroke="black"/>
<path id="7-Aula 7" d="M124.5 55.1828L124 54.8994M124 54.8994L109.5 46.6828L114.381 37.6828L125.5 17.1828L140 25.1828L124 54.8994Z" stroke="black"/>
<path id="8-Aula 9" d="M125 16.6828L108.5 46.1828L94 38.1828L79.5 30.6828L95.5 0.68277L110 8.68277L125 16.6828Z" stroke="black"/>
<path id="Cefi" d="M73.5 40.1828L88 47.6828L92.5 39.1828L78.5 31.6828L73.5 40.1828Z" stroke="black"/>
<path id="Arbol" d="M122.5 201.683V188.683H135.5V201.683H122.5Z" stroke="black"/>
<path id="14-Aula 14" d="M397 255.683L367 242.183L380.5 211.683L411.5 225.683L397 255.683Z" stroke="black"/>
<path id="15-Aula 15" d="M400 167.183L386.5 199.183L381.5 210.183L412 224.183L430.5 183.183L400 167.183Z" stroke="black"/>
</g>
</svg>
